<svg width="85" height="51" fill="none" xmlns="http://www.w3.org/2000/svg"><g clip-path="url(#clip0)" fill="#FFBC6B"><path d="M8.5 37.583c-.781 0-1.416.373-1.416.833v1.666c0 .46.635.832 1.417.832s1.416-.373 1.416-.832v-1.666c0-.46-.634-.833-1.416-.833zm0 4.997c-.781 0-1.416.373-1.416.833v1.665c0 .46.635.833 1.417.833s1.416-.373 1.416-.833v-1.666c0-.46-.634-.832-1.416-.832zm0-9.993c-.781 0-1.416.373-1.416.832v1.666c0 .46.635.833 1.417.833s1.416-.373 1.416-.833v-1.666c0-.46-.634-.832-1.416-.832zm5.668 4.996c-.782 0-1.417.373-1.417.833v1.666c0 .46.635.832 1.417.832s1.416-.373 1.416-.832v-1.666c0-.46-.634-.833-1.416-.833zm0-4.996c-.782 0-1.417.373-1.417.832v1.666c0 .46.635.833 1.417.833s1.416-.373 1.416-.833v-1.666c0-.46-.634-.832-1.416-.832zm0 9.993c-.782 0-1.417.373-1.417.833v1.665c0 .46.635.833 1.417.833s1.416-.373 1.416-.833v-1.666c0-.46-.634-.832-1.416-.832z"/><path d="M82.168 10.103h-2.834V7.605c0-.46-.634-.833-1.416-.833h-8.5c-.782 0-1.417.373-1.417.833v2.498h-2.833c-.782 0-1.417.373-1.417.832V24.26h-1.417v-2.498c0-.46-.634-.833-1.416-.833H59.5v-.832c0-.46-.635-.833-1.417-.833s-1.416.373-1.416.833v.832H55.25c-.782 0-1.417.373-1.417.833v2.498h-4.25V7.605c0-.46-.634-.833-1.416-.833h-4.25V1.775c0-.46-.635-.832-1.417-.832h-17c-.782 0-1.417.373-1.417.832v4.997h-4.25c-.782 0-1.416.373-1.416.832v21.652h-2.834v-2.498c0-.46-.634-.833-1.416-.833h-8.5c-.782 0-1.417.373-1.417.832v2.499H2.835c-.782 0-1.417.373-1.417.832v19.986c0 .46.635.833 1.417.833h79.333c.782 0 1.417-.373 1.417-.833V10.935c0-.46-.635-.832-1.417-.832zm-41.084.832c0-.46.635-.832 1.417-.832s1.417.373 1.417.832V24.26h-2.834V10.935zm-5.666-5.829c0-.46.634-.832 1.416-.832.782 0 1.417.373 1.417.832v2.499c0 .46-.635.832-1.417.832s-1.416-.373-1.416-.832V5.106zm0 5.83c0-.46.634-.833 1.416-.833.782 0 1.417.373 1.417.832V24.26h-2.834V10.935zm-5.667-5.83c0-.46.635-.832 1.417-.832s1.416.373 1.416.832v2.499c0 .46-.634.832-1.416.832-.782 0-1.417-.373-1.417-.832V5.106zm-5.667 5.83c0-.46.635-.833 1.417-.833s1.417.373 1.417.832v18.32h-2.834v-18.32zm5.667 36.64h-4.25c-.782 0-1.417-.373-1.417-.833 0-.46.635-.832 1.417-.832h4.25v1.665zm0-3.331h-4.25c-.782 0-1.417-.373-1.417-.833 0-.46.635-.832 1.417-.832h4.25v1.665zm0-3.33h-4.25c-.782 0-1.417-.374-1.417-.834 0-.46.635-.832 1.417-.832h4.25v1.665zm0-3.332h-4.25c-.782 0-1.417-.373-1.417-.832 0-.46.635-.833 1.417-.833h4.25v1.665zm0-4.996h-9.917c-.782 0-1.416.373-1.416.832v15.823H4.25v-18.32h25.5v1.665zm0-7.495V10.936c0-.46.635-.833 1.417-.833s1.416.373 1.416.832V24.26h-1.416c-.782 0-1.417.373-1.417.833zm34 24.15h-2.833V28.423c0-.46-.635-.833-1.417-.833s-1.417.373-1.417.833v20.819h-2.833V28.423c0-.46-.635-.833-1.417-.833s-1.416.373-1.416.833v20.819h-2.834V28.423c0-.46-.634-.833-1.416-.833-.782 0-1.417.373-1.417.833v20.819h-2.833V28.423c0-.46-.635-.833-1.417-.833s-1.416.373-1.416.833v20.819H38.25V28.423c0-.46-.635-.833-1.417-.833s-1.416.373-1.416.833v20.819h-2.834V25.925H63.75v23.317zm8.5-3.17c0 .46-.635.834-1.417.834s-1.416-.373-1.416-.833v-1.666c0-.46.634-.832 1.416-.832.782 0 1.417.373 1.417.832v1.666zm0-4.995c0 .46-.635.832-1.417.832s-1.416-.373-1.416-.832V39.41c0-.46.634-.833 1.416-.833.782 0 1.417.373 1.417.833v1.666zm0-4.997c0 .46-.635.833-1.417.833s-1.416-.373-1.416-.833v-1.666c0-.46.634-.832 1.416-.832.782 0 1.417.373 1.417.832v1.666zm0-4.996c0 .46-.635.832-1.417.832s-1.416-.373-1.416-.832v-1.666c0-.46.634-.833 1.416-.833.782 0 1.417.373 1.417.833v1.666zm0-4.997c0 .46-.635.833-1.417.833s-1.416-.373-1.416-.833v-1.665c0-.46.634-.833 1.416-.833.782 0 1.417.373 1.417.833v1.665zm0-4.996c0 .46-.635.832-1.417.832s-1.416-.373-1.416-.832v-1.666c0-.46.634-.832 1.416-.832.782 0 1.417.373 1.417.832v1.666zm0-4.997c0 .46-.635.833-1.417.833s-1.416-.373-1.416-.833V14.43c0-.46.634-.833 1.416-.833.782 0 1.417.373 1.417.833v1.665zm5.667 29.979c0 .46-.635.833-1.417.833s-1.417-.373-1.417-.833v-1.666c0-.46.635-.832 1.417-.832s1.417.373 1.417.832v1.666zm0-4.996c0 .46-.635.832-1.417.832s-1.417-.373-1.417-.832V39.41c0-.46.635-.833 1.417-.833s1.417.373 1.417.833v1.666zm0-4.997c0 .46-.635.833-1.417.833s-1.417-.373-1.417-.833v-1.666c0-.46.635-.832 1.417-.832s1.417.373 1.417.832v1.666zm0-4.996c0 .46-.635.832-1.417.832s-1.417-.373-1.417-.832v-1.666c0-.46.635-.833 1.417-.833s1.417.373 1.417.833v1.666zm0-4.997c0 .46-.635.833-1.417.833s-1.417-.373-1.417-.833v-1.665c0-.46.635-.833 1.417-.833s1.417.373 1.417.833v1.665zm0-4.996c0 .46-.635.832-1.417.832s-1.417-.373-1.417-.832v-1.666c0-.46.635-.832 1.417-.832s1.417.373 1.417.832v1.666zm0-4.997c0 .46-.635.833-1.417.833s-1.417-.373-1.417-.833V14.43c0-.46.635-.833 1.417-.833s1.417.373 1.417.833v1.665z"/></g><defs><clipPath id="clip0"><path fill="#fff" transform="translate(.001 .943)" d="M0 0h85v49.964H0z"/></clipPath></defs></svg>