<svg width="85" height="51" viewBox="0 0 85 51" fill="none" xmlns="http://www.w3.org/2000/svg">
<g clip-path="url(#clip0)">
<path d="M8.5006 37.5834C7.71866 37.5834 7.08398 37.9564 7.08398 38.4161V40.0816C7.08398 40.5412 7.71866 40.9143 8.5006 40.9143C9.28253 40.9143 9.91721 40.5412 9.91721 40.0816V38.4161C9.91721 37.9564 9.28253 37.5834 8.5006 37.5834Z" fill="#FFBC6B"/>
<path d="M8.5006 42.5798C7.71866 42.5798 7.08398 42.9529 7.08398 43.4125V45.0781C7.08398 45.5377 7.71866 45.9108 8.5006 45.9108C9.28253 45.9108 9.91721 45.5377 9.91721 45.0781V43.4125C9.91721 42.9529 9.28253 42.5798 8.5006 42.5798Z" fill="#FFBC6B"/>
<path d="M8.5006 32.5868C7.71866 32.5868 7.08398 32.9599 7.08398 33.4195V35.085C7.08398 35.5446 7.71866 35.9177 8.5006 35.9177C9.28253 35.9177 9.91721 35.5446 9.91721 35.085V33.4195C9.91721 32.9599 9.28253 32.5868 8.5006 32.5868Z" fill="#FFBC6B"/>
<path d="M14.1676 37.5834C13.3857 37.5834 12.751 37.9564 12.751 38.4161V40.0816C12.751 40.5412 13.3857 40.9143 14.1676 40.9143C14.9495 40.9143 15.5842 40.5412 15.5842 40.0816V38.4161C15.5844 37.9564 14.9497 37.5834 14.1676 37.5834Z" fill="#FFBC6B"/>
<path d="M14.1676 32.5868C13.3857 32.5868 12.751 32.9599 12.751 33.4195V35.085C12.751 35.5446 13.3857 35.9177 14.1676 35.9177C14.9495 35.9177 15.5842 35.5446 15.5842 35.085V33.4195C15.5844 32.9599 14.9497 32.5868 14.1676 32.5868Z" fill="#FFBC6B"/>
<path d="M14.1676 42.5798C13.3857 42.5798 12.751 42.9529 12.751 43.4125V45.0781C12.751 45.5377 13.3857 45.9108 14.1676 45.9108C14.9495 45.9108 15.5842 45.5377 15.5842 45.0781V43.4125C15.5844 42.9529 14.9497 42.5798 14.1676 42.5798Z" fill="#FFBC6B"/>
<path d="M82.1676 10.1028H79.3343V7.60457C79.3343 7.14494 78.6996 6.77187 77.9176 6.77187H69.4176C68.6357 6.77187 68.001 7.14494 68.001 7.60457V10.1028H65.1676C64.3857 10.1028 63.751 10.4759 63.751 10.9355V24.2593H62.3344V21.7611C62.3344 21.3014 61.6997 20.9284 60.9178 20.9284H59.501V20.0957C59.501 19.636 58.8664 19.263 58.0844 19.263C57.3025 19.263 56.6678 19.636 56.6678 20.0957V20.9284H55.251C54.4691 20.9284 53.8344 21.3014 53.8344 21.7611V24.2593H49.5844V7.60457C49.5844 7.14494 48.9497 6.77187 48.1678 6.77187H43.9178V1.77543C43.9176 1.3157 43.283 0.942627 42.501 0.942627H25.501C24.7191 0.942627 24.0844 1.3157 24.0844 1.77533V6.77177H19.8344C19.0525 6.77177 18.4178 7.14484 18.4178 7.60448V29.2557H15.5844V26.7575C15.5844 26.2979 14.9497 25.9248 14.1678 25.9248H5.6678C4.88587 25.9248 4.25119 26.2979 4.25119 26.7575V29.2557H2.83458C2.05265 29.2557 1.41797 29.6288 1.41797 30.0884V50.0742C1.41797 50.5338 2.05265 50.9069 2.83458 50.9069H19.8346H31.168H65.168H82.168C82.9499 50.9069 83.5846 50.5338 83.5846 50.0742V10.9355C83.5844 10.4759 82.9497 10.1028 82.1676 10.1028ZM41.0844 10.9355C41.0844 10.4759 41.7191 10.1028 42.501 10.1028C43.283 10.1028 43.9176 10.4759 43.9176 10.9355V24.2593H41.0843V10.9355H41.0844ZM35.4176 5.10636C35.4176 4.64672 36.0523 4.27365 36.8343 4.27365C37.6162 4.27365 38.2509 4.64672 38.2509 5.10636V7.60457C38.2509 8.06421 37.6162 8.43728 36.8343 8.43728C36.0523 8.43728 35.4176 8.06421 35.4176 7.60457V5.10636ZM35.4176 10.9355C35.4176 10.4759 36.0523 10.1028 36.8343 10.1028C37.6162 10.1028 38.2509 10.4759 38.2509 10.9355V24.2593H35.4175V10.9355H35.4176ZM29.751 5.10636C29.751 4.64672 30.3857 4.27365 31.1676 4.27365C31.9496 4.27365 32.5843 4.64672 32.5843 5.10636V7.60457C32.5843 8.06421 31.9496 8.43728 31.1676 8.43728C30.3857 8.43728 29.751 8.06421 29.751 7.60457V5.10636ZM24.0844 10.9355C24.0844 10.4759 24.7191 10.1028 25.501 10.1028C26.283 10.1028 26.9176 10.4759 26.9176 10.9355V29.2557H24.0842V10.9355H24.0844ZM29.751 47.5761H25.501C24.7191 47.5761 24.0844 47.203 24.0844 46.7434C24.0844 46.2837 24.7191 45.9106 25.501 45.9106H29.751V47.5761ZM29.751 44.245H25.501C24.7191 44.245 24.0844 43.872 24.0844 43.4123C24.0844 42.9527 24.7191 42.5796 25.501 42.5796H29.751V44.245ZM29.751 40.9141H25.501C24.7191 40.9141 24.0844 40.541 24.0844 40.0814C24.0844 39.6218 24.7191 39.2487 25.501 39.2487H29.751V40.9141ZM29.751 37.5832H25.501C24.7191 37.5832 24.0844 37.2101 24.0844 36.7505C24.0844 36.2908 24.7191 35.9178 25.501 35.9178H29.751V37.5832ZM29.751 32.5867H19.8344C19.0525 32.5867 18.4178 32.9598 18.4178 33.4195V49.2415H4.25103V30.9212H5.66764H14.1676H19.8342H25.501H29.751V32.5867ZM29.751 25.0921V10.9355C29.751 10.4759 30.3857 10.1028 31.1676 10.1028C31.9496 10.1028 32.5843 10.4759 32.5843 10.9355V24.2593H31.1676C30.3857 24.2593 29.751 24.6324 29.751 25.0921ZM63.751 49.2415H60.9176V28.423C60.9176 27.9634 60.283 27.5903 59.501 27.5903C58.7191 27.5903 58.0844 27.9634 58.0844 28.423V49.2415H55.251V28.423C55.251 27.9634 54.6164 27.5903 53.8344 27.5903C53.0525 27.5903 52.4178 27.9634 52.4178 28.423V49.2415H49.5844V28.423C49.5844 27.9634 48.9497 27.5903 48.1678 27.5903C47.3859 27.5903 46.7512 27.9634 46.7512 28.423V49.2415H43.9178V28.423C43.9178 27.9634 43.2831 27.5903 42.5012 27.5903C41.7193 27.5903 41.0846 27.9634 41.0846 28.423V49.2415H38.251V28.423C38.251 27.9634 37.6164 27.5903 36.8344 27.5903C36.0525 27.5903 35.4178 27.9634 35.4178 28.423V49.2415H32.5844V46.7433V43.4123V40.0814V36.7505V33.4195V30.0885V25.9248H36.8344H42.501H48.1676H55.251H60.9176H63.751V49.2415ZM72.251 46.0729C72.251 46.5326 71.6163 46.9056 70.8344 46.9056C70.0525 46.9056 69.4178 46.5326 69.4178 46.0729V44.4074C69.4178 43.9478 70.0525 43.5747 70.8344 43.5747C71.6163 43.5747 72.251 43.9478 72.251 44.4074V46.0729ZM72.251 41.0765C72.251 41.5361 71.6163 41.9092 70.8344 41.9092C70.0525 41.9092 69.4178 41.5361 69.4178 41.0765V39.411C69.4178 38.9513 70.0525 38.5783 70.8344 38.5783C71.6163 38.5783 72.251 38.9513 72.251 39.411V41.0765ZM72.251 36.0801C72.251 36.5397 71.6163 36.9128 70.8344 36.9128C70.0525 36.9128 69.4178 36.5397 69.4178 36.0801V34.4145C69.4178 33.9549 70.0525 33.5818 70.8344 33.5818C71.6163 33.5818 72.251 33.9549 72.251 34.4145V36.0801ZM72.251 31.0836C72.251 31.5433 71.6163 31.9163 70.8344 31.9163C70.0525 31.9163 69.4178 31.5433 69.4178 31.0836V29.4181C69.4178 28.9585 70.0525 28.5854 70.8344 28.5854C71.6163 28.5854 72.251 28.9585 72.251 29.4181V31.0836ZM72.251 26.0872C72.251 26.5468 71.6163 26.9199 70.8344 26.9199C70.0525 26.9199 69.4178 26.5468 69.4178 26.0872V24.4217C69.4178 23.962 70.0525 23.589 70.8344 23.589C71.6163 23.589 72.251 23.962 72.251 24.4217V26.0872ZM72.251 21.0908C72.251 21.5504 71.6163 21.9235 70.8344 21.9235C70.0525 21.9235 69.4178 21.5504 69.4178 21.0908V19.4252C69.4178 18.9656 70.0525 18.5925 70.8344 18.5925C71.6163 18.5925 72.251 18.9656 72.251 19.4252V21.0908ZM72.251 16.0943C72.251 16.554 71.6163 16.927 70.8344 16.927C70.0525 16.927 69.4178 16.554 69.4178 16.0943V14.4288C69.4178 13.9692 70.0525 13.5961 70.8344 13.5961C71.6163 13.5961 72.251 13.9692 72.251 14.4288V16.0943ZM77.9176 46.0729C77.9176 46.5326 77.283 46.9056 76.501 46.9056C75.7191 46.9056 75.0844 46.5326 75.0844 46.0729V44.4074C75.0844 43.9478 75.7191 43.5747 76.501 43.5747C77.283 43.5747 77.9176 43.9478 77.9176 44.4074V46.0729ZM77.9176 41.0765C77.9176 41.5361 77.283 41.9092 76.501 41.9092C75.7191 41.9092 75.0844 41.5361 75.0844 41.0765V39.411C75.0844 38.9513 75.7191 38.5783 76.501 38.5783C77.283 38.5783 77.9176 38.9513 77.9176 39.411V41.0765ZM77.9176 36.0801C77.9176 36.5397 77.283 36.9128 76.501 36.9128C75.7191 36.9128 75.0844 36.5397 75.0844 36.0801V34.4145C75.0844 33.9549 75.7191 33.5818 76.501 33.5818C77.283 33.5818 77.9176 33.9549 77.9176 34.4145V36.0801ZM77.9176 31.0836C77.9176 31.5433 77.283 31.9163 76.501 31.9163C75.7191 31.9163 75.0844 31.5433 75.0844 31.0836V29.4181C75.0844 28.9585 75.7191 28.5854 76.501 28.5854C77.283 28.5854 77.9176 28.9585 77.9176 29.4181V31.0836ZM77.9176 26.0872C77.9176 26.5468 77.283 26.9199 76.501 26.9199C75.7191 26.9199 75.0844 26.5468 75.0844 26.0872V24.4217C75.0844 23.962 75.7191 23.589 76.501 23.589C77.283 23.589 77.9176 23.962 77.9176 24.4217V26.0872ZM77.9176 21.0908C77.9176 21.5504 77.283 21.9235 76.501 21.9235C75.7191 21.9235 75.0844 21.5504 75.0844 21.0908V19.4252C75.0844 18.9656 75.7191 18.5925 76.501 18.5925C77.283 18.5925 77.9176 18.9656 77.9176 19.4252V21.0908ZM77.9176 16.0943C77.9176 16.554 77.283 16.927 76.501 16.927C75.7191 16.927 75.0844 16.554 75.0844 16.0943V14.4288C75.0844 13.9692 75.7191 13.5961 76.501 13.5961C77.283 13.5961 77.9176 13.9692 77.9176 14.4288V16.0943Z" fill="#FFBC6B"/>
</g>
<defs>
<clipPath id="clip0">
<rect width="85" height="49.9644" fill="white" transform="translate(0.000976562 0.942627)"/>
</clipPath>
</defs>
</svg>
